<svg xmlns="http://www.w3.org/2000/svg" width="12" height="12" viewBox="0 0 12 12" fill="#fff">
    <path d="M11.674 2.91c.264 0 .511.065.747.183.06.029.115.064.168.104.086.065.172.13.245.208.153.167.254.34.338.548.071.175.1.371.1.56v7.142c0 .109.005.221-.007.33-.026.228-.078.424-.184.63-.05.096-.116.18-.183.265-.041.053-.084.102-.134.146-.291.262-.656.414-1.049.426-.01 0-.02.003-.029.003h-7.36c-.256 0-.49-.063-.722-.171-.06-.028-.117-.062-.172-.1-.086-.062-.174-.128-.248-.204-.12-.123-.227-.268-.297-.426-.094-.21-.15-.409-.159-.641v-7.44l.004-.075c.021-.229.072-.419.172-.627.029-.06.064-.115.103-.17.063-.086.129-.173.207-.246.29-.277.67-.435 1.07-.446zm.005 1.078H4.485c-.079 0-.158 0-.237.005-.043.009-.085.02-.126.034-.04.02-.078.043-.115.067-.033.03-.065.062-.095.095-.024.037-.046.075-.066.114-.014.042-.026.085-.035.128-.002.024-.005.047-.005.07l.001 7.313.004.118c.01.043.02.085.035.126.02.04.042.078.067.115.03.034.061.065.095.095.036.024.074.046.113.066.042.014.085.026.129.035l.07.005h7.364l.064-.005c.043-.009.086-.02.129-.035.04-.02.077-.042.114-.067.034-.03.066-.061.096-.095.024-.036.046-.074.066-.113.014-.042.026-.085.035-.129.001-.023.004-.046.004-.07V4.548l-.005-.118c-.009-.043-.02-.085-.034-.127-.02-.04-.042-.077-.067-.114-.03-.034-.062-.066-.095-.095-.037-.025-.074-.047-.113-.067-.043-.014-.086-.026-.13-.035-.022-.001-.046-.004-.07-.004zm-1.459 1.43l.086.005c.112.018.214.078.297.153.046.042.082.1.109.161.031.068.05.143.05.22v2.49c0 .147-.062.276-.158.383-.098.105-.243.15-.382.157-.135.007-.288-.064-.382-.157-.097-.098-.158-.244-.158-.383V7.26l-.736.736L7.66 9.283l-1.058 1.058-.444.444c-.102.103-.237.151-.382.158-.144.006-.28-.064-.382-.158-.1-.092-.158-.249-.158-.382 0-.14.06-.284.158-.382l.008-.008c.177-.181.36-.36.539-.539l2.976-2.976H7.733c-.147 0-.277-.06-.382-.158-.106-.098-.152-.243-.158-.382-.007-.135.064-.289.158-.382.097-.097.244-.158.382-.158h2.487z" transform="translate(-831 -595) translate(298 548) translate(204 33) translate(327 12)"/>
</svg>
