<svg xmlns="http://www.w3.org/2000/svg" width="14" height="9" fill="none"><path fill="#fff" d="M8 5.772H6A2.29 2.29 0 0 0 3.71 8.06c0 .129.105.233.233.233h6.113a.233.233 0 0 0 .233-.233A2.29 2.29 0 0 0 8 5.77ZM7.882 4.838a1.247 1.247 0 1 0-1.764-1.764 1.247 1.247 0 0 0 1.764 1.764Z"/><path fill="#fff" d="M5.946 5.553h.263a2.287 2.287 0 0 0-1.92-1.042h-2A2.289 2.289 0 0 0 0 6.8c0 .129.104.233.233.233h3.489a2.412 2.412 0 0 1 2.224-1.48ZM4.171 3.577a1.247 1.247 0 1 0-1.764-1.764 1.247 1.247 0 0 0 1.764 1.764ZM11.71 4.51h-2c-.8 0-1.505.412-1.914 1.034h.258c1.005 0 1.866.615 2.228 1.489h3.485A.233.233 0 0 0 14 6.8a2.29 2.29 0 0 0-2.289-2.29ZM11.593 3.577a1.247 1.247 0 1 0-1.764-1.764 1.247 1.247 0 0 0 1.764 1.764Z"/></svg>